HIERARCHY
ROOT joint_0
{
	OFFSET 0.000000 0.000000 0.000000
	CHANNELS 6 Xposition Yposition Zposition Zrotation Yrotation Xrotation 
	JOINT joint_1
	{
		OFFSET 11.612000 -0.419000 106.198000
		CHANNELS 3 Zrotation Yrotation Xrotation
		JOINT joint_2
		{
			OFFSET -1.708000 -1.022000 97.564090
			CHANNELS 3 Zrotation Yrotation Xrotation
			JOINT joint_3
			{
				OFFSET -4.121000 -1.538000 97.375000
				CHANNELS 3 Zrotation Yrotation Xrotation
				JOINT joint_4
				{
					OFFSET 5.442000 -2.123000 132.795900
					CHANNELS 3 Zrotation Yrotation Xrotation
					JOINT joint_5
					{
						OFFSET 21.935000 0.195000 82.975100
						CHANNELS 3 Zrotation Yrotation Xrotation
						End Site
						{
							OFFSET 0.000000 0.000000 0.000000
						}
					}
				}
				JOINT joint_6
				{
					OFFSET 4.262000 -30.048000 73.899900
					CHANNELS 3 Zrotation Yrotation Xrotation
					JOINT joint_7
					{
						OFFSET 9.731000 -136.810010 -21.963010
						CHANNELS 3 Zrotation Yrotation Xrotation
						JOINT joint_8
						{
							OFFSET 33.360000 -35.709000 -267.597900
							CHANNELS 3 Zrotation Yrotation Xrotation
							JOINT joint_9
							{
								OFFSET 36.156000 -29.759000 -240.558040
								CHANNELS 3 Zrotation Yrotation Xrotation
								End Site
								{
									OFFSET 0.000000 0.000000 0.000000
								}
							}
						}
					}
				}
				JOINT joint_10
				{
					OFFSET 2.027000 27.734000 74.914920
					CHANNELS 3 Zrotation Yrotation Xrotation
					JOINT joint_11
					{
						OFFSET -5.183000 136.784000 -23.604980
						CHANNELS 3 Zrotation Yrotation Xrotation
						JOINT joint_12
						{
							OFFSET 29.806000 37.229000 -267.809940
							CHANNELS 3 Zrotation Yrotation Xrotation
							JOINT joint_13
							{
								OFFSET 36.890000 46.524990 -237.772030
								CHANNELS 3 Zrotation Yrotation Xrotation
								End Site
								{
									OFFSET 0.000000 0.000000 0.000000
								}
							}
						}
					}
				}
			}
		}
	}
	JOINT joint_14
	{
		OFFSET -7.290000 -102.873990 -124.314940
		CHANNELS 3 Zrotation Yrotation Xrotation
		JOINT joint_15
		{
			OFFSET -15.466000 -19.909010 -438.533020
			CHANNELS 3 Zrotation Yrotation Xrotation
			JOINT joint_16
			{
				OFFSET -26.899000 -18.922000 -464.797000
				CHANNELS 3 Zrotation Yrotation Xrotation
				JOINT joint_17
				{
					OFFSET 179.329000 -12.011000 -84.174000
					CHANNELS 3 Zrotation Yrotation Xrotation
					End Site
					{
						OFFSET 0.000000 0.000000 0.000000
					}
				}
			}
		}
	}
	JOINT joint_18
	{
		OFFSET -6.225000 101.546000 -125.479980
		CHANNELS 3 Zrotation Yrotation Xrotation
		JOINT joint_19
		{
			OFFSET -13.973000 7.996000 -438.963010
			CHANNELS 3 Zrotation Yrotation Xrotation
			JOINT joint_20
			{
				OFFSET -44.294000 5.716000 -463.813970
				CHANNELS 3 Zrotation Yrotation Xrotation
				JOINT joint_21
				{
					OFFSET 178.505000 -4.689000 -85.139000
					CHANNELS 3 Zrotation Yrotation Xrotation
					End Site
					{
						OFFSET 0.000000 0.000000 0.000000
					}
				}
			}
		}
	}
}
MOTION
Frames: 18
Frame Time: 0.016667
-33.937000 -13.440000 1128.176030 -0.390967 -3.844509 0.522803 -1.015097 2.031229 0.470135 -1.052057 -0.481204 -0.207602 -1.022834 0.520132 0.111732 -0.047564 0.779918 0.177013 0.000000 0.000000 0.000000 -3.327301 -0.067122 1.811203 0.096346 -0.750133 0.017300 -0.230928 1.017729 -0.697648 0.000000 0.000000 0.000000 0.041653 -0.626234 0.240405 -0.259025 -0.767767 -2.161576 0.279394 0.647433 0.966265 0.000000 0.000000 0.000000 -0.074429 2.536099 -0.118183 0.007388 1.120812 -0.553008 0.118299 -2.275122 -0.096893 0.000000 0.000000 0.000000 3.253894 2.672589 0.401164 3.201598 -0.395005 0.552595 3.128214 0.690671 1.506397 0.000000 0.000000 0.000000 
-33.496000 -13.660000 1128.427980 -0.402181 -3.838789 0.555575 -0.959655 1.987875 0.401415 -0.993632 -0.412794 -0.184030 -0.968959 0.436015 0.091772 -0.056851 0.841687 0.216619 0.000000 0.000000 0.000000 -4.890269 -0.041973 3.325399 -0.014641 -1.178384 -1.384067 -0.235875 1.323981 -0.467227 0.000000 0.000000 0.000000 -0.029371 -0.664604 0.128347 -0.243907 -0.784310 -2.088735 0.309019 0.739788 1.036668 0.000000 0.000000 0.000000 -0.084256 2.554742 -0.140892 -0.002971 1.131951 -0.551731 0.112436 -2.360661 -0.105374 0.000000 0.000000 0.000000 3.257000 2.693489 0.378311 3.203834 -0.393300 0.551510 3.130119 0.680964 1.507055 0.000000 0.000000 0.000000 
-32.308000 -14.007000 1128.796020 -0.301525 -3.630057 0.595702 -0.853518 2.064738 0.335241 -0.886062 -0.383772 -0.149456 -0.865097 0.392968 0.070050 -0.063826 0.550486 0.243665 0.000000 0.000000 0.000000 -5.853061 0.211584 3.987983 -0.106480 -1.175558 -2.182169 -0.110689 1.017913 0.124830 0.000000 0.000000 0.000000 -0.045422 -0.678809 0.138823 -0.259586 -0.796427 -2.018740 0.238880 0.545229 0.837852 0.000000 0.000000 0.000000 -0.119562 2.444539 -0.169449 -0.041483 1.065482 -0.549867 0.075965 -2.440095 -0.127794 0.000000 0.000000 0.000000 3.219519 2.547632 0.358211 3.167295 -0.454061 0.525020 3.093597 0.713592 1.490686 0.000000 0.000000 0.000000 
-30.280000 -14.548000 1129.365970 -0.046219 -3.138516 0.659840 -0.632752 2.372671 0.299157 -0.667120 -0.402237 -0.116701 -0.648165 0.389489 0.048133 -0.059136 -0.222256 0.222288 0.000000 0.000000 0.000000 -5.741170 0.897643 3.091124 -0.145110 -0.363596 -1.832804 0.275400 -0.545451 1.330006 0.000000 0.000000 0.000000 0.082182 -0.728275 0.281021 -0.320210 -0.878205 -1.856218 0.017210 -0.057802 0.184324 0.000000 0.000000 0.000000 -0.181538 2.149618 -0.223308 -0.111001 0.883319 -0.542571 0.005366 -2.524595 -0.166559 0.000000 0.000000 0.000000 3.124278 2.148037 0.336278 3.076522 -0.582972 0.453000 3.002284 0.813098 1.450144 0.000000 0.000000 0.000000 
-27.505000 -15.217000 1130.052000 0.322286 -2.451666 0.735757 -0.365684 2.807133 0.284158 -0.402783 -0.439507 -0.070823 -0.386336 0.398943 0.012992 -0.037717 -1.353698 0.143157 0.000000 0.000000 0.000000 -5.092439 1.857773 1.471977 -0.139279 0.892932 -0.897469 0.802512 -2.870719 2.738225 0.000000 0.000000 0.000000 0.290388 -0.762470 0.494918 -0.400048 -0.961905 -1.620541 -0.303152 -0.915746 -0.795256 0.000000 0.000000 0.000000 -0.269562 1.735190 -0.281843 -0.208518 0.620882 -0.537321 -0.096327 -2.597022 -0.219110 0.000000 0.000000 0.000000 2.988254 1.590400 0.319290 2.947395 -0.777229 0.352803 2.873129 0.965373 1.392979 0.000000 0.000000 0.000000 
-23.721000 -15.852000 1130.595950 0.778365 -1.640150 0.779671 -0.204366 3.172996 0.260434 -0.242594 -0.500855 -0.025461 -0.227790 0.440419 -0.021306 -0.038683 -2.800889 0.146531 0.000000 0.000000 0.000000 -4.338839 2.721358 0.160175 -0.135845 2.032851 -0.067043 1.206481 -4.796871 3.758473 0.000000 0.000000 0.000000 0.361151 -0.573499 0.841245 -0.472735 -0.807253 -1.524407 -0.664959 -1.935744 -1.839095 0.000000 0.000000 0.000000 -0.401198 1.259675 -0.283837 -0.347896 0.320353 -0.554814 -0.244968 -2.593189 -0.288595 0.000000 0.000000 0.000000 2.823280 0.990553 0.331003 2.789289 -1.074603 0.260822 2.719289 1.152778 1.324888 0.000000 0.000000 0.000000 
-18.387000 -16.467000 1130.879030 1.336306 -0.640538 0.765275 -0.220602 3.418879 0.193660 -0.257582 -0.619793 0.002208 -0.240808 0.550806 -0.034715 -0.112918 -4.876957 0.415972 0.000000 0.000000 0.000000 -3.409026 3.407920 -0.668442 -0.151338 2.975361 0.523704 1.445462 -6.040631 4.395057 0.000000 0.000000 0.000000 0.145275 0.076414 1.491389 -0.545074 -0.163858 -1.748848 -1.145933 -3.504963 -2.972052 0.000000 0.000000 0.000000 -0.581598 0.752067 -0.173545 -0.523261 -0.151168 -0.642092 -0.445787 -2.443012 -0.372776 0.000000 0.000000 0.000000 2.612913 0.395442 0.402935 2.582700 -1.645510 0.184740 2.526915 1.431885 1.240637 0.000000 0.000000 0.000000 
-12.043000 -17.049000 1131.021000 1.977552 0.481940 0.725342 -0.340775 3.602684 0.129934 -0.374189 -0.742948 0.003356 -0.353226 0.665876 -0.031558 -0.227980 -7.290503 0.826959 0.000000 0.000000 0.000000 -2.298023 3.989253 -1.268161 -0.171855 3.821932 1.029678 1.575330 -6.824804 4.782105 0.000000 0.000000 0.000000 -0.195499 0.958553 2.153343 -0.595806 0.740653 -2.016439 -1.661673 -5.298919 -4.096022 0.000000 0.000000 0.000000 -0.804351 0.185847 0.000978 -0.738885 -0.663229 -0.755980 -0.692938 -2.199918 -0.472462 0.000000 0.000000 0.000000 2.374037 -0.237943 0.513108 2.347727 -2.324146 0.110021 2.312210 1.772196 1.147115 0.000000 0.000000 0.000000 
-6.057000 -17.395000 1131.121950 2.629555 1.469354 0.698883 -0.488841 3.699542 0.129135 -0.517447 -0.791560 -0.028849 -0.492188 0.705917 -0.010449 -0.312611 -9.105554 1.118465 0.000000 0.000000 0.000000 -1.367486 4.294867 -1.448911 -0.195848 4.310293 1.219111 1.527768 -6.642405 4.748301 0.000000 0.000000 0.000000 -0.490109 1.591288 2.390448 -0.587279 1.425185 -2.048846 -1.925436 -6.155392 -4.765778 0.000000 0.000000 0.000000 -1.071681 -0.469829 0.138852 -1.026502 -0.777811 -0.772652 -0.986878 -2.006318 -0.597394 0.000000 0.000000 0.000000 2.168466 -0.936001 0.596146 2.152845 -2.639493 0.044079 2.129682 1.992493 1.065807 0.000000 0.000000 0.000000 
-1.006000 -17.325000 1131.172000 3.311548 2.233775 0.708717 -0.662940 3.598986 0.185737 -0.686643 -0.736050 -0.091729 -0.657583 0.668023 0.035439 -0.334177 -9.891129 1.179927 0.000000 0.000000 0.000000 -0.682629 4.182691 -1.031773 -0.239244 4.250196 0.789347 1.252264 -4.935400 4.319443 0.000000 0.000000 0.000000 -0.719204 1.785374 2.064650 -0.495660 1.698578 -1.756776 -1.803581 -5.381672 -4.914589 0.000000 0.000000 0.000000 -1.412622 -1.307578 0.156433 -1.439141 -0.201204 -0.581662 -1.358839 -1.922339 -0.766297 0.000000 0.000000 0.000000 2.021970 -1.798078 0.592835 2.030100 -2.282642 -0.004714 2.000765 1.973562 1.004011 0.000000 0.000000 0.000000 
3.689000 -17.020000 1131.181030 4.007462 2.872194 0.731081 -0.863249 3.401747 0.280409 -0.883479 -0.647155 -0.173683 -0.849840 0.620292 0.098186 -0.323506 -10.102143 1.130930 0.000000 0.000000 0.000000 -0.118435 3.782636 -0.212181 -0.296695 3.826866 -0.019877 0.806071 -2.239828 3.521142 0.000000 0.000000 0.000000 -0.956573 1.728566 1.452223 -0.349031 1.740691 -1.356915 -1.433482 -3.670614 -4.628348 0.000000 0.000000 0.000000 -1.799739 -2.244410 0.124653 -1.925221 0.772984 -0.293272 -1.778931 -1.882320 -0.960636 0.000000 0.000000 0.000000 1.906980 -2.734738 0.541998 1.946954 -1.559283 -0.027596 1.903392 1.823410 0.953819 0.000000 0.000000 0.000000 
8.400000 -16.822000 1131.284060 4.593205 3.410562 0.729490 -1.011791 3.385270 0.433831 -1.031046 -0.611436 -0.244966 -0.992178 0.621883 0.147283 -0.299850 -10.140177 1.026003 0.000000 0.000000 0.000000 0.248075 3.325601 0.581619 -0.334965 3.337245 -0.561028 0.283032 0.307994 2.149685 0.000000 0.000000 0.000000 -1.222929 1.516984 0.904237 -0.211089 1.621828 -1.161544 -0.962126 -1.934808 -3.747129 0.000000 0.000000 0.000000 -2.151619 -3.054002 0.171231 -2.361434 1.701903 -0.107981 -2.156878 -1.869636 -1.136763 0.000000 0.000000 0.000000 1.805984 -3.497363 0.523296 1.874610 -0.916386 -0.020552 1.821828 1.668065 0.910839 0.000000 0.000000 0.000000 
13.208000 -16.908000 1131.484010 5.008308 3.835135 0.668943 -1.064922 3.711600 0.690355 -1.085992 -0.666926 -0.289563 -1.041362 0.696622 0.168775 -0.260956 -10.152985 0.846048 0.000000 0.000000 0.000000 0.318508 2.854728 1.224590 -0.337918 2.839815 -0.476438 -0.367024 2.435869 -0.296907 0.000000 0.000000 0.000000 -1.561682 1.109562 0.552834 -0.100996 1.293269 -1.369328 -0.362436 -0.332798 -1.905726 0.000000 0.000000 0.000000 -2.452558 -3.704866 0.390142 -2.723459 2.559165 -0.123287 -2.472758 -1.961730 -1.290434 0.000000 0.000000 0.000000 1.712690 -3.995224 0.596566 1.802876 -0.464193 0.015669 1.747603 1.479244 0.870286 0.000000 0.000000 0.000000 
18.032000 -17.101000 1131.776000 5.313219 4.157978 0.579390 -1.064411 4.220249 0.998840 -1.088330 -0.768049 -0.315253 -1.037921 0.807982 0.176143 -0.208138 -9.987431 0.612216 0.000000 0.000000 0.000000 0.190281 2.326534 1.872339 -0.348798 2.275044 -0.137560 -1.122646 4.385894 -3.390352 0.000000 0.000000 0.000000 -1.924323 0.549444 0.263074 0.005506 0.806263 -1.780489 0.345535 1.270035 0.560462 0.000000 0.000000 0.000000 -2.720365 -4.225711 0.689152 -3.038287 3.370085 -0.242238 -2.749765 -2.088202 -1.427776 0.000000 0.000000 0.000000 1.634184 -4.317557 0.707572 1.740791 -0.091799 0.075551 1.686647 1.271965 0.835493 0.000000 0.000000 0.000000 
23.000000 -17.220000 1132.281010 5.563936 4.443202 0.516624 -1.062973 4.706565 1.246805 -1.087312 -0.872053 -0.337007 -1.031185 0.911878 0.182808 -0.168366 -9.577937 0.452235 0.000000 0.000000 0.000000 0.087925 1.849164 2.377306 -0.369975 1.776014 0.177081 -1.736193 5.823208 -5.894797 0.000000 0.000000 0.000000 -2.196457 0.076622 0.047471 0.083419 0.385088 -2.183633 0.920789 2.420677 2.716040 0.000000 0.000000 0.000000 -2.922367 -4.483381 0.926538 -3.260215 3.777409 -0.357921 -2.959135 -2.055751 -1.522711 0.000000 0.000000 0.000000 1.576328 -4.486574 0.783573 1.690060 0.087703 0.136193 1.641200 1.218357 0.812159 0.000000 0.000000 0.000000 
28.287000 -17.183000 1133.036010 5.790262 4.705293 0.506612 -1.088411 5.116493 1.388272 -1.108722 -0.979335 -0.369137 -1.045530 1.008743 0.198849 -0.158714 -8.867150 0.439867 0.000000 0.000000 0.000000 0.117003 1.458059 2.571769 -0.368927 1.404360 0.541633 -2.122824 6.688123 -7.439811 0.000000 0.000000 0.000000 -2.345511 -0.204938 -0.004187 0.105093 0.115532 -2.685027 1.287118 2.902415 4.394314 0.000000 0.000000 0.000000 -3.040398 -4.319141 1.055749 -3.353284 3.483631 -0.450069 -3.079372 -1.767748 -1.559196 0.000000 0.000000 0.000000 1.547388 -4.428654 0.781833 1.651557 -0.090596 0.201107 1.615325 1.425666 0.805093 0.000000 0.000000 0.000000 
33.718000 -17.072000 1134.003050 5.964854 4.929895 0.522965 -1.115662 5.505447 1.462802 -1.129520 -1.095626 -0.399665 -1.058656 1.107475 0.217233 -0.166045 -7.913942 0.508882 0.000000 0.000000 0.000000 0.159584 1.115557 2.543511 -0.339136 1.098431 0.985414 -2.345650 7.077568 -8.392666 0.000000 0.000000 0.000000 -2.397195 -0.396755 0.059413 0.085929 -0.093652 -3.233847 1.515440 2.958486 5.746526 0.000000 0.000000 0.000000 -3.090691 -3.892554 1.124488 -3.351067 2.788050 -0.535204 -3.128654 -1.324182 -1.552204 0.000000 0.000000 0.000000 1.538350 -4.218197 0.746323 1.623990 -0.461938 0.264009 1.604597 1.788160 0.809351 0.000000 0.000000 0.000000 
38.889000 -16.946000 1135.186040 6.058669 5.139549 0.537709 -1.116172 5.831906 1.502231 -1.124148 -1.188137 -0.419234 -1.047191 1.181241 0.230019 -0.174315 -6.829185 0.583889 0.000000 0.000000 0.000000 0.090211 0.818651 2.455491 -0.289129 0.807067 1.241768 -2.358161 6.931526 -8.596545 0.000000 0.000000 0.000000 -2.337951 -0.565109 0.096967 0.055008 -0.286747 -3.448516 1.581525 2.857981 6.295055 0.000000 0.000000 0.000000 -3.091548 -3.552713 1.136589 -3.312816 2.235470 -0.554594 -3.134972 -0.851473 -1.522947 0.000000 0.000000 0.000000 1.530505 -4.104342 0.737711 1.606553 -0.639349 0.292283 1.597376 2.142586 0.815068 0.000000 0.000000 0.000000 
